<svg xmlns="http://www.w3.org/2000/svg" version="1.1" xmlns:xlink="http://www.w3.org/1999/xlink" xmlns:svgjs="http://svgjs.dev/svgjs" width="1000" height="1000" viewBox="0 0 1000 1000"><g transform="matrix(1,0,0,1,-0.14221556886212738,-0.14221556886229791)"><svg viewBox="0 0 334 334" data-background-color="#89939e" preserveAspectRatio="xMidYMid meet" height="1000" width="1000" xmlns="http://www.w3.org/2000/svg" xmlns:xlink="http://www.w3.org/1999/xlink"><g id="tight-bounds" transform="matrix(1,0,0,1,0.04749999999998522,0.04750000000001364)"><svg viewBox="0 0 333.90454557049503 333.90454557049503" height="333.90454557049503" width="333.90454557049503"><g><svg></svg></g><g><svg viewBox="0 0 333.90454557049503 333.90454557049503" height="333.90454557049503" width="333.90454557049503"><g><path d="M0 166.952c0-92.205 74.747-166.952 166.952-166.952 92.205 0 166.952 74.747 166.953 166.952 0 92.205-74.747 166.952-166.953 166.953-92.205 0-166.952-74.747-166.952-166.953zM166.952 324.627c87.081 0 157.675-70.593 157.675-157.675 0-87.081-70.593-157.675-157.675-157.675-87.081 0-157.675 70.593-157.675 157.675 0 87.081 70.593 157.675 157.675 157.675z" data-fill-palette-color="tertiary" fill="#ffffff" stroke="transparent"></path><ellipse rx="160.27418187383762" ry="160.27418187383762" cx="166.95227278524752" cy="166.95227278524752" fill="#ffffff" stroke="transparent" stroke-width="0" fill-opacity="1" data-fill-palette-color="tertiary"></ellipse></g><g transform="matrix(1,0,0,1,74.64672915108497,71.17305217166896)"><svg viewBox="0 0 184.6110872683251 191.55844122715712" height="191.55844122715712" width="184.6110872683251"><g><svg viewBox="0 0 184.6110872683251 191.55844122715712" height="191.55844122715712" width="184.6110872683251"><g><svg viewBox="0 0 213.1584412271571 221.18009996082537" height="191.55844122715712" width="184.6110872683251"><g transform="matrix(1,0,0,1,0,102.39715179607371)"><svg viewBox="0 0 213.1584412271571 118.78294816475167" height="118.78294816475167" width="213.1584412271571"><g id="textblocktransform"><svg viewBox="0 0 213.1584412271571 118.78294816475167" height="118.78294816475167" width="213.1584412271571" id="textblock"><g><svg viewBox="0 0 213.1584412271571 118.78294816475167" height="118.78294816475167" width="213.1584412271571"><g transform="matrix(1,0,0,1,0,0)"><svg width="213.1584412271571" viewBox="2.5 -35.75 65.5 36.5" height="118.78294816475167" data-palette-color="#89939e"><path d="M2.5 0L2.5-0.75 5.5-1.5 5.5-33.5 2.5-34.25 2.5-35 16-35Q23.6-35 27.18-32.58 30.75-30.15 30.75-26.25L30.75-26.25Q30.75-23.55 29.2-21.9 27.65-20.25 25.25-19.45L25.25-19.45Q22.7-18.55 19.75-18.5L19.75-18.5 19.75-18.25Q23.4-18.1 26.1-17.15L26.1-17.15Q28.85-16.25 30.68-14.35 32.5-12.45 32.5-9.5L32.5-9.5Q32.5-5.05 28.85-2.53 25.2 0 17 0L17 0 2.5 0ZM13.75-19L16-19Q17.65-19 19.07-19.93 20.5-20.85 21.38-22.53 22.25-24.2 22.25-26.25L22.25-26.25Q22.25-28.45 21.38-30.15 20.5-31.85 19.07-32.8 17.65-33.75 16-33.75L16-33.75 13.75-33.75 13.75-19ZM13.75-1.25L17-1.25Q20.1-1.25 22.05-3.45 24-5.65 24-9.5L24-9.5Q24-13.35 22.05-15.55 20.1-17.75 17-17.75L17-17.75 13.75-17.75 13.75-1.25ZM50.25 0.75Q46.45 0.75 43.25-1.4 40.05-3.55 38.15-7.68 36.25-11.8 36.25-17.5L36.25-17.5Q36.25-23.25 38.22-27.38 40.2-31.5 43.77-33.63 47.35-35.75 52.05-35.75L52.05-35.75Q54.9-35.75 57.8-34.1L57.8-34.1Q58.9-33.5 60-32.5L60-32.5Q60.85-33.8 61.75-34.55L61.75-34.55Q62.65-35.2 62.75-35.25L62.75-35.25 64-35.25 64-25.75 62-25.75Q61.35-28.15 60.05-30.1L60.05-30.1Q58.85-32 57.07-33.25 55.3-34.5 53-34.5L53-34.5Q49.55-34.5 47.27-30.5 45-26.5 45-17.5L45-17.5Q45-8.5 47.02-4.75 49.05-1 52.25-1L52.25-1Q54.1-1 55.6-3L55.6-3Q56.15-3.75 56.75-5L56.75-5 56.75-16.5 53.75-17.25 53.75-18 68-18 68-17.25 65-16.5 65 0.25 64.25 0.25Q60.6 0.25 58.7-1.75L58.7-1.75Q57.85-2.65 57.5-3.75L57.5-3.75Q56.8-2.5 55.85-1.5L55.85-1.5Q53.6 0.75 50.25 0.75L50.25 0.75Z" opacity="1" transform="matrix(1,0,0,1,0,0)" fill="#000000" class="wordmark-text-0" data-fill-palette-color="quaternary" id="text-0"></path></svg></g></svg></g></svg></g></svg></g><g transform="matrix(1,0,0,1,40.713262274387006,0)"><svg viewBox="0 0 131.7319166783831 74.3553485251318" height="74.3553485251318" width="131.7319166783831"><g><svg xmlns="http://www.w3.org/2000/svg" xmlns:xlink="http://www.w3.org/1999/xlink" version="1.1" x="0" y="0" viewBox="0 0 90 50.800000000000004" enable-background="new 0 0 90 50.8" xml:space="preserve" width="131.7319166783831" height="74.3553485251318" class="icon-icon-0" data-fill-palette-color="quaternary" id="icon-0"><g fill="#89939e" data-fill-palette-color="quaternary"><g fill="#89939e" data-fill-palette-color="quaternary"><path fill-rule="evenodd" clip-rule="evenodd" d="M80 2.3C80 1 78.9 0 77.6 0H12.3C11 0 10 1 10 2.3v44.3h70V2.3zM44.6 0.8c0.7 0 1.2 0.6 1.2 1.3 0 0.7-0.6 1.3-1.2 1.3-0.7 0-1.2-0.6-1.2-1.3C43.3 1.4 43.9 0.8 44.6 0.8zM75.8 42.5H14.2V4.2h61.6V42.5zM52 47.5c-0.1 0.6-0.5 0.8-1.1 0.8H39.1c-0.6 0-1-0.2-1.1-0.8H0v1.6c0 0.9 6.3 1.7 14 1.7h62c7.7 0 14-0.8 14-1.7v-1.6H52zM60.8 22.2l-11.6-4.9v3.2l8 3.1-8 3.1v3.2l11.6-4.9V22.2zM43.2 32c0.3 0 0.5-0.1 0.7-0.2 0.2-0.1 0.3-0.3 0.4-0.6 0.1-0.2 0.2-0.6 0.3-1l3.1-12.9c0.2-0.6 0.2-1 0.2-1.3 0-0.3-0.1-0.6-0.3-0.7C47.4 15 47.1 15 46.8 15c-0.4 0-0.7 0.1-0.9 0.4-0.1 0.3-0.3 0.7-0.5 1.4l-3.1 12.9c-0.1 0.7-0.2 1.1-0.2 1.3C42.1 31.6 42.4 32 43.2 32zM40.8 26.6l-8-3.1 8-3v-3.2l-11.7 4.9v2.7l11.7 4.9V26.6z" fill="#000000" data-fill-palette-color="quaternary"></path></g></g></svg></g></svg></g><g></g></svg></g></svg></g></svg></g></svg></g><defs></defs></svg><rect width="333.90454557049503" height="333.90454557049503" fill="none" stroke="none" visibility="hidden"></rect></g></svg></g></svg>